<svg width="52" height="53" viewBox="0 0 52 53" fill="none" xmlns="http://www.w3.org/2000/svg">
<path fill-rule="evenodd" clip-rule="evenodd" d="M26 0C11.6406 0 0 11.6862 0 26.1017V52.2035H26C40.3594 52.2035 52 40.5173 52 26.1017V0H26ZM13.2116 39.1526H21.1672V38.0057H17.7817L24.6373 28.2769L30.985 38.0057H27.938V39.1526H39.8293C39.6601 38.4446 39.2792 38.0622 38.6868 38.0057H37.3749L28.5728 24.7084L34.7513 15.9993C35.2589 15.2628 35.8374 14.8663 36.4861 14.8097H36.994C37.6993 14.6398 38.0802 14.2574 38.1367 13.6625H30.6463V14.8097H34.0317L27.811 23.5612L22.0137 14.8097H25.0604V13.6625H13.4231V14.8097H15.8775L23.8755 27.0873L16.9354 36.8161C16.3147 37.6091 15.4543 38.0057 14.3541 38.0057C13.6488 38.1755 13.2679 38.5579 13.2116 39.1526Z" fill="#FBBF24"/>
</svg>
