<svg width="145" height="44" viewBox="0 0 145 44" fill="none" xmlns="http://www.w3.org/2000/svg">
<path d="M5 21.5C5 14.8726 10.3726 9.5 17 9.5H29V21.5C29 28.1274 23.6274 33.5 17 33.5H5V21.5Z" fill="black"/>
<path d="M14.7695 27.5H11.0977C11.1237 27.2266 11.2995 27.0508 11.625 26.9727C12.1328 26.9727 12.5299 26.7904 12.8164 26.4258L16.0195 21.9531L12.3281 16.3086H11.1953V15.7812H16.5664V16.3086H15.1602L17.8359 20.332L20.707 16.3086H19.1445V15.7812H22.6016C22.5755 16.0547 22.3997 16.2305 22.0742 16.3086C21.9961 16.3086 21.918 16.3086 21.8398 16.3086C21.5404 16.3346 21.2734 16.5169 21.0391 16.8555L18.1875 20.8594L22.25 26.9727H22.8555C23.1289 26.9987 23.3047 27.1745 23.3828 27.5H17.8945V26.9727H19.3008L16.3711 22.5L13.207 26.9727H14.7695V27.5Z" fill="#FBBF24"/>
<path d="M41.0312 30.5H35.1562C35.1979 30.0625 35.4792 29.7812 36 29.6562C36.8125 29.6562 37.4479 29.3646 37.9062 28.7812L43.0312 21.625L37.125 12.5938H35.3125V11.75H43.9062V12.5938H41.6562L45.9375 19.0312L50.5312 12.5938H48.0312V11.75H53.5625C53.5208 12.1875 53.2396 12.4688 52.7188 12.5938C52.5938 12.5938 52.4688 12.5938 52.3438 12.5938C51.8646 12.6354 51.4375 12.9271 51.0625 13.4688L46.5 19.875L53 29.6562H53.9688C54.4062 29.6979 54.6875 29.9792 54.8125 30.5H46.0312V29.6562H48.2812L43.5938 22.5L38.5312 29.6562H41.0312V30.5ZM62.75 17.4062C61.0833 17.4688 60.1771 19.2292 60.0312 22.6875L62.0312 22.7812C62.8646 22.8229 63.4896 22.7708 63.9062 22.625C64.4896 22.3958 64.7812 21.7917 64.7812 20.8125C64.7604 18.5833 64.0833 17.4479 62.75 17.4062ZM68.5938 27.2812C68.4688 27.6146 68.3021 27.9375 68.0938 28.25C67.0312 29.9583 65.2812 30.8125 62.8438 30.8125C61.4688 30.8125 60.2396 30.5312 59.1562 29.9688C56.8854 28.7812 55.75 26.6771 55.75 23.6562C55.75 21.8021 56.25 20.25 57.25 19C58.5625 17.3958 60.3958 16.5938 62.75 16.5938C64.0417 16.5938 65.1979 16.8125 66.2188 17.25C68.0312 18.0625 68.9375 19.3542 68.9375 21.125C68.9375 21.4792 68.875 21.8021 68.75 22.0938C68.2083 23.2604 66.2604 23.7917 62.9062 23.6875L60.0312 23.5938C60.0521 24.8021 60.1562 25.8438 60.3438 26.7188C60.8229 28.8438 61.8958 29.9062 63.5625 29.9062C64.0833 29.9062 64.5938 29.8125 65.0938 29.625C66.3438 29.1667 67.2604 28.3021 67.8438 27.0312L68.5938 27.2812ZM81.4688 30.5L81.0312 27.5625C80.9271 27.8333 80.8021 28.0938 80.6562 28.3438C79.7188 29.9896 78.2812 30.8125 76.3438 30.8125C75.1771 30.8125 74.1146 30.4583 73.1562 29.75C71.4688 28.5208 70.625 26.6146 70.625 24.0312C70.625 21.9479 71.1667 20.2188 72.25 18.8438C73.5 17.3229 75.1146 16.5625 77.0938 16.5625C78.5729 16.5625 79.8438 17.0208 80.9062 17.9375V11H78.0625V10.1875H84.875V29.6562H86.3125C86.4583 29.6562 86.5833 29.6667 86.6875 29.6875C86.9375 29.75 87.0625 30.0208 87.0625 30.5H81.4688ZM74.9062 23.6562C74.9062 24.4479 74.9583 25.1667 75.0625 25.8125C75.4167 28.1875 76.3229 29.375 77.7812 29.375C78.2188 29.375 78.625 29.2604 79 29.0312C80.3125 28.1771 80.9688 26.1875 80.9688 23.0625C80.9688 22.3542 80.9271 21.6875 80.8438 21.0625C80.4896 18.75 79.5625 17.5938 78.0625 17.5938C77.6458 17.5938 77.25 17.6979 76.875 17.9062C75.5625 18.6979 74.9062 20.6146 74.9062 23.6562ZM95.25 29.6875C95.375 29.6875 95.4896 29.6979 95.5938 29.7188C95.8646 29.7604 96 30.0208 96 30.5H88.3125V29.6875C88.5833 29.6875 88.8229 29.6667 89.0312 29.625C89.7604 29.5 90.125 28.9792 90.125 28.0625V17.875H88.3125V17.0625H94.0938V29.6875H95.25ZM94.375 12.9688C94.375 13.3646 94.2708 13.7396 94.0625 14.0938C93.625 14.8646 92.9479 15.25 92.0312 15.25C91.6562 15.25 91.2917 15.1562 90.9375 14.9688C90.125 14.5521 89.7188 13.8854 89.7188 12.9688C89.7188 12.5729 89.8125 12.1979 90 11.8438C90.4583 11.0312 91.1354 10.625 92.0312 10.625C92.4271 10.625 92.8021 10.7292 93.1562 10.9375C93.9688 11.375 94.375 12.0521 94.375 12.9688ZM112.812 29.6875C112.958 29.6875 113.083 29.6979 113.188 29.7188C113.438 29.7812 113.562 30.0417 113.562 30.5H108L107.844 27.9375C107.781 28.0625 107.719 28.1875 107.656 28.3125C106.677 29.9792 105.25 30.8125 103.375 30.8125C100.438 30.7917 98.9479 29.0938 98.9062 25.7188V17.875H97.0938V17.0625H102.875V26.25C102.875 26.5417 102.896 26.8229 102.938 27.0938C103.146 28.4896 103.844 29.1875 105.031 29.1875C105.344 29.1875 105.656 29.1146 105.969 28.9688C107.01 28.4479 107.604 27.375 107.75 25.75L107.781 17.875H106.25V17.0625H111.75V29.6875H112.812ZM121.156 29.6875C121.281 29.6875 121.396 29.6979 121.5 29.7188C121.771 29.7604 121.906 30.0208 121.906 30.5H114.812V29.6875C114.979 29.6875 115.135 29.6771 115.281 29.6562C116.177 29.5521 116.625 29.0208 116.625 28.0625V17.875H114.812V17.0625H120.375L120.531 19.3438C121.448 17.5312 122.906 16.6146 124.906 16.5938C125.24 16.5938 125.573 16.6354 125.906 16.7188C127.177 17.0938 128.062 18.0208 128.562 19.5C129.562 17.5833 131.073 16.6146 133.094 16.5938C133.823 16.5938 134.5 16.7917 135.125 17.1875C136.479 18.0417 137.156 19.4896 137.156 21.5312V29.6875H138.188C138.312 29.6875 138.438 29.6979 138.562 29.7188C138.833 29.7604 138.969 30.0208 138.969 30.5H131.844V29.6875C132.177 29.6875 132.438 29.6562 132.625 29.5938C133.021 29.4271 133.219 28.9167 133.219 28.0625V21.1562C133.219 20.6354 133.156 20.1562 133.031 19.7188C132.698 18.6562 132.083 18.125 131.188 18.125C130.979 18.125 130.771 18.1667 130.562 18.25C129.583 18.6667 129.021 19.7396 128.875 21.4688V21.6875V29.6875H129.406C129.531 29.6875 129.656 29.6979 129.781 29.7188C130.052 29.7604 130.188 30.0208 130.188 30.5H123.562V29.6875C123.896 29.6875 124.156 29.6562 124.344 29.5938C124.74 29.4271 124.938 28.9167 124.938 28.0625V21.1562C124.938 20.5938 124.865 20.0833 124.719 19.625C124.385 18.6667 123.833 18.1875 123.062 18.1875C122.792 18.1875 122.521 18.2604 122.25 18.4062C121.292 18.9062 120.75 19.9792 120.625 21.625L120.594 29.6875H121.156Z" fill="black"/>
</svg>
