<svg width="151" height="46" viewBox="0 0 151 46" fill="none" xmlns="http://www.w3.org/2000/svg">
<path fill-rule="evenodd" clip-rule="evenodd" d="M17.7035 9.93182C10.8018 9.93182 5.20691 15.5486 5.20691 22.4773V35.0227H17.7035C24.6051 35.0227 30.2 29.4059 30.2 22.4773V9.93182H17.7035ZM11.5569 28.75H15.3807V28.1987H13.7535L17.0485 23.5227L20.0995 28.1987H18.635V28.75H24.3504C24.269 28.4097 24.086 28.2259 23.8012 28.1987H23.1707L18.9401 21.8076L21.9097 17.6217C22.1537 17.2677 22.4317 17.0771 22.7435 17.0499H22.9876C23.3266 16.9683 23.5097 16.7845 23.5368 16.4985H19.9367V17.0499H21.5638L18.5739 21.2562L15.7875 17.0499H17.2519V16.4985H11.6586V17.0499H12.8382L16.6824 22.951L13.3467 27.627C13.0484 28.0082 12.6348 28.1987 12.106 28.1987C11.7671 28.2804 11.584 28.4642 11.5569 28.75Z" fill="black"/>
<path d="M42.729 31.8864H36.6109C36.6544 31.429 36.9473 31.1349 37.4896 31.0042C38.3358 31.0042 38.9975 30.6994 39.4747 30.0894L44.8118 22.608L38.6612 13.1663H36.7737V12.2841H45.723V13.1663H43.3799L47.8384 19.8963L52.6221 13.1663H50.0187V12.2841H55.7789C55.7354 12.7415 55.4426 13.0356 54.9003 13.1663C54.7701 13.1663 54.6399 13.1663 54.5097 13.1663C54.0107 13.2097 53.5659 13.5147 53.1754 14.081L48.4241 20.7784L55.1931 31.0042H56.202C56.6575 31.0478 56.9504 31.3419 57.0806 31.8864H47.9359V31.0042H50.279L45.3977 23.5227L40.1256 31.0042H42.729V31.8864ZM65.3465 18.1974C63.6109 18.2628 62.6672 20.1033 62.5152 23.7188L64.598 23.8167C65.4659 23.8603 66.1167 23.8058 66.5506 23.6534C67.1581 23.4138 67.4618 22.7822 67.4618 21.7585C67.4401 19.428 66.735 18.241 65.3465 18.1974ZM71.4322 28.5213C71.302 28.8698 71.1284 29.2074 70.9115 29.5341C69.8049 31.32 67.9825 32.2131 65.4442 32.2131C64.0123 32.2131 62.7323 31.919 61.604 31.331C59.2393 30.0894 58.0569 27.8897 58.0569 24.7315C58.0569 22.7931 58.5776 21.1705 59.619 19.8636C60.9858 18.1865 62.8949 17.3481 65.3465 17.3481C66.6917 17.3481 67.8957 17.5767 68.9589 18.0341C70.8463 18.8835 71.7901 20.2339 71.7901 22.0852C71.7901 22.4555 71.725 22.7931 71.5948 23.0981C71.0307 24.3177 69.0022 24.8731 65.5092 24.7642L62.5152 24.6663C62.537 25.9295 62.6454 27.0185 62.8408 27.9333C63.3397 30.1549 64.457 31.2656 66.1927 31.2656C66.735 31.2656 67.2666 31.1676 67.7873 30.9716C69.0891 30.4925 70.0436 29.5886 70.6511 28.2599L71.4322 28.5213ZM84.8399 31.8864L84.3842 28.8153C84.2758 29.0985 84.1456 29.3708 83.9937 29.6322C83.0175 31.3528 81.5204 32.2131 79.5028 32.2131C78.2879 32.2131 77.1814 31.8428 76.1833 31.1023C74.4261 29.8172 73.5474 27.8244 73.5474 25.1235C73.5474 22.9455 74.1115 21.1378 75.2396 19.7003C76.5414 18.1103 78.2228 17.3153 80.2839 17.3153C81.8242 17.3153 83.1477 17.7945 84.254 18.7528V11.5H81.2927V10.6506H88.3871V31.0042H89.884C90.0359 31.0042 90.166 31.0152 90.2746 31.0369C90.5349 31.1023 90.6651 31.3854 90.6651 31.8864H84.8399ZM78.0058 24.7315C78.0058 25.5592 78.06 26.3106 78.1685 26.9858C78.5374 29.4688 79.4811 30.7102 80.9997 30.7102C81.4554 30.7102 81.8784 30.5904 82.269 30.3508C83.6358 29.4579 84.3192 27.3778 84.3192 24.1108C84.3192 23.3703 84.2758 22.6733 84.1891 22.0199C83.8202 19.6023 82.8547 18.3935 81.2927 18.3935C80.8587 18.3935 80.4465 18.5024 80.056 18.7201C78.6892 19.5478 78.0058 21.5516 78.0058 24.7315ZM99.1914 31.0369C99.3215 31.0369 99.4409 31.0478 99.5494 31.0697C99.8314 31.1131 99.9724 31.3854 99.9724 31.8864H91.9668V31.0369C92.2488 31.0369 92.4983 31.0152 92.7152 30.9716C93.4746 30.8409 93.8543 30.2964 93.8543 29.3381V18.6875H91.9668V17.8381H97.9873V31.0369H99.1914ZM98.2802 13.5583C98.2802 13.9721 98.1717 14.3641 97.9547 14.7344C97.4991 15.5403 96.794 15.9432 95.8394 15.9432C95.4489 15.9432 95.0693 15.8451 94.7004 15.6492C93.8543 15.2136 93.4313 14.5166 93.4313 13.5583C93.4313 13.1444 93.5289 12.7524 93.7241 12.3822C94.2014 11.5326 94.9065 11.108 95.8394 11.108C96.2517 11.108 96.6422 11.2169 97.0109 11.4347C97.8572 11.8921 98.2802 12.5999 98.2802 13.5583ZM117.48 31.0369C117.632 31.0369 117.762 31.0478 117.872 31.0697C118.132 31.1349 118.261 31.4072 118.261 31.8864H112.469L112.307 29.2074C112.241 29.3381 112.176 29.4688 112.111 29.5994C111.091 31.3419 109.605 32.2131 107.653 32.2131C104.594 32.1913 103.042 30.4163 102.999 26.8878V18.6875H101.111V17.8381H107.132V27.4432C107.132 27.7481 107.154 28.0421 107.197 28.3253C107.414 29.7846 108.141 30.5142 109.377 30.5142C109.703 30.5142 110.028 30.438 110.354 30.2856C111.438 29.741 112.057 28.6193 112.209 26.9205L112.241 18.6875H110.647V17.8381H116.374V31.0369H117.48ZM126.169 31.0369C126.3 31.0369 126.419 31.0478 126.528 31.0697C126.81 31.1131 126.95 31.3854 126.95 31.8864H119.563V31.0369C119.737 31.0369 119.899 31.0261 120.051 31.0042C120.984 30.8954 121.451 30.3399 121.451 29.3381V18.6875H119.563V17.8381H125.356L125.518 20.2231C126.473 18.3281 127.992 17.3698 130.075 17.3481C130.422 17.3481 130.769 17.3916 131.116 17.4788C132.439 17.8708 133.361 18.8399 133.882 20.3864C134.923 18.3825 136.497 17.3698 138.601 17.3481C139.36 17.3481 140.066 17.555 140.716 17.9688C142.126 18.8618 142.831 20.3755 142.831 22.5099V31.0369H143.906C144.035 31.0369 144.166 31.0478 144.296 31.0697C144.578 31.1131 144.719 31.3854 144.719 31.8864H137.3V31.0369C137.646 31.0369 137.918 31.0042 138.113 30.939C138.525 30.7647 138.731 30.2311 138.731 29.3381V22.1179C138.731 21.5734 138.666 21.0724 138.536 20.6151C138.189 19.5042 137.549 18.9489 136.616 18.9489C136.399 18.9489 136.182 18.9925 135.965 19.0796C134.945 19.5152 134.36 20.6369 134.208 22.4447V22.6733V31.0369H134.761C134.891 31.0369 135.021 31.0478 135.151 31.0697C135.433 31.1131 135.575 31.3854 135.575 31.8864H128.675V31.0369C129.023 31.0369 129.293 31.0042 129.489 30.939C129.902 30.7647 130.108 30.2311 130.108 29.3381V22.1179C130.108 21.5299 130.032 20.9962 129.88 20.5171C129.532 19.5152 128.957 19.0142 128.154 19.0142C127.873 19.0142 127.591 19.0904 127.309 19.2429C126.311 19.7656 125.747 20.8874 125.616 22.608L125.584 31.0369H126.169Z" fill="black"/>
</svg>
